<svg xmlns="http://www.w3.org/2000/svg" xmlns:xlink="http://www.w3.org/1999/xlink" width="270" height="157" viewBox="0 0 270 157"><defs><style>.a{fill:#6011f5;stroke:#6011f5;}.b{fill:url(#a);}.c{fill:url(#b);}.d{clip-path:url(#c);}.e{clip-path:url(#d);}.f{opacity:0.11;}.aa,.ab,.ac,.ad,.ae,.af,.ag,.ah,.ai,.aj,.ak,.al,.am,.an,.ao,.ap,.aq,.ar,.as,.at,.au,.av,.g,.h,.i,.j,.k,.l,.m,.n,.o,.p,.q,.r,.s,.t,.u,.v,.w,.x,.y,.z{fill:none;stroke:#fff;}.aa,.ab,.ac,.ad,.ae,.af,.ag,.ah,.ai,.aj,.ak,.al,.am,.an,.ao,.ap,.aq,.ar,.as,.at,.au,.g,.h,.i,.j,.k,.l,.m,.n,.o,.p,.q,.r,.s,.t,.u,.v,.w,.x,.y,.z{stroke-miterlimit:10;}.g{stroke-width:0.287px;opacity:0;}.h{stroke-width:0.423px;opacity:0.024;}.i{stroke-width:0.56px;opacity:0.049;}.j{stroke-width:0.696px;opacity:0.073;}.k{stroke-width:0.833px;opacity:0.098;}.l{stroke-width:0.969px;opacity:0.122;}.m{stroke-width:1.106px;opacity:0.146;}.n{stroke-width:1.242px;opacity:0.171;}.o{stroke-width:1.379px;opacity:0.195;}.p{stroke-width:1.515px;opacity:0.22;}.q{stroke-width:1.652px;opacity:0.244;}.r{stroke-width:1.788px;opacity:0.268;}.s{stroke-width:1.924px;opacity:0.293;}.t{stroke-width:2.061px;opacity:0.317;}.u{stroke-width:2.197px;opacity:0.341;}.v{stroke-width:2.334px;opacity:0.366;}.w{stroke-width:2.47px;opacity:0.39;}.x{stroke-width:2.607px;opacity:0.415;}.y{stroke-width:2.743px;opacity:0.439;}.z{stroke-width:2.88px;opacity:0.463;}.aa{stroke-width:3.016px;opacity:0.488;}.ab{stroke-width:3.153px;opacity:0.512;}.ac{stroke-width:3.289px;opacity:0.537;}.ad{stroke-width:3.426px;opacity:0.561;}.ae{stroke-width:3.562px;opacity:0.585;}.af{stroke-width:3.699px;opacity:0.61;}.ag{stroke-width:3.835px;opacity:0.634;}.ah{stroke-width:3.972px;opacity:0.659;}.ai{stroke-width:4.108px;opacity:0.683;}.aj{stroke-width:4.245px;opacity:0.707;}.ak{stroke-width:4.381px;opacity:0.732;}.al{stroke-width:4.518px;opacity:0.756;}.am{stroke-width:4.654px;opacity:0.78;}.an{stroke-width:4.791px;opacity:0.805;}.ao{stroke-width:4.927px;opacity:0.829;}.ap{stroke-width:5.063px;opacity:0.854;}.aq{stroke-width:5.2px;opacity:0.878;}.ar{stroke-width:5.336px;opacity:0.902;}.as{stroke-width:5.473px;opacity:0.927;}.at{stroke-width:5.609px;opacity:0.951;}.au{stroke-width:5.746px;opacity:0.976;}.av{stroke-width:5.882px;}</style><linearGradient id="a" x1="0.872" y1="0.116" x2="0.138" y2="0.867" gradientUnits="objectBoundingBox"><stop offset="0" stop-color="#6184fe"/><stop offset="1" stop-color="#804efd"/></linearGradient><linearGradient id="b" x1="0.27" y1="1.162" x2="1.073" y2="-0.19" gradientUnits="objectBoundingBox"><stop offset="0" stop-color="#7e03d5"/><stop offset="1" stop-color="#e73689"/></linearGradient><clipPath id="c"><rect class="a" width="270" height="157" rx="6"/></clipPath><clipPath id="d"><rect class="b" width="492.958" height="840.743"/></clipPath></defs><g transform="translate(-550 -337)"><rect class="c" width="270" height="157" rx="6" transform="translate(550 337)"/><g transform="translate(4921 418.185)"><g class="d" transform="translate(-4371 -81.185)"><g class="e" transform="translate(0 -296.527)"><g class="f" transform="translate(-394.499 -720.218)"><circle class="g" cx="14.036" cy="14.036" r="14.036" transform="translate(513.017 893.35)"/><circle class="h" cx="25.687" cy="25.687" r="25.687" transform="translate(501.367 881.699)"/><circle class="i" cx="37.338" cy="37.338" r="37.338" transform="translate(489.716 870.048)"/><circle class="j" cx="48.989" cy="48.989" r="48.989" transform="translate(478.065 858.397)"/><circle class="k" cx="60.64" cy="60.64" r="60.64" transform="translate(466.414 846.746)"/><circle class="l" cx="72.291" cy="72.291" r="72.291" transform="translate(454.763 835.095)"/><circle class="m" cx="83.942" cy="83.942" r="83.942" transform="translate(443.112 823.444)"/><circle class="n" cx="95.593" cy="95.593" r="95.593" transform="translate(431.461 811.793)"/><circle class="o" cx="107.244" cy="107.244" r="107.244" transform="translate(419.81 800.142)"/><circle class="p" cx="118.895" cy="118.895" r="118.895" transform="translate(408.159 788.491)"/><circle class="q" cx="130.546" cy="130.546" r="130.546" transform="translate(396.508 776.84)"/><circle class="r" cx="142.197" cy="142.197" r="142.197" transform="translate(384.857 765.189)"/><circle class="s" cx="153.848" cy="153.848" r="153.848" transform="translate(373.206 753.538)"/><circle class="t" cx="165.499" cy="165.499" r="165.499" transform="translate(361.555 741.887)"/><circle class="u" cx="177.15" cy="177.15" r="177.15" transform="translate(349.904 730.236)"/><circle class="v" cx="188.801" cy="188.801" r="188.801" transform="translate(338.253 718.585)"/><circle class="w" cx="200.451" cy="200.451" r="200.451" transform="translate(326.602 706.934)"/><circle class="x" cx="212.102" cy="212.102" r="212.102" transform="translate(314.951 695.284)"/><circle class="y" cx="223.753" cy="223.753" r="223.753" transform="translate(303.3 683.633)"/><circle class="z" cx="235.404" cy="235.404" r="235.404" transform="translate(291.65 671.982)"/><circle class="aa" cx="247.055" cy="247.055" r="247.055" transform="translate(279.999 660.331)"/><circle class="ab" cx="258.706" cy="258.706" r="258.706" transform="translate(268.348 648.68)"/><circle class="ac" cx="270.357" cy="270.357" r="270.357" transform="translate(256.697 637.029)"/><circle class="ad" cx="282.008" cy="282.008" r="282.008" transform="translate(245.046 625.378)"/><circle class="ae" cx="293.659" cy="293.659" r="293.659" transform="translate(233.395 613.727)"/><ellipse class="af" cx="242.668" cy="623" rx="242.668" ry="623" transform="translate(284.386 284.386)"/><ellipse class="ag" cx="254.319" cy="634.651" rx="254.319" ry="634.651" transform="translate(272.735 272.735)"/><ellipse class="ah" cx="265.97" cy="646.302" rx="265.97" ry="646.302" transform="translate(261.084 261.084)"/><ellipse class="ai" cx="277.621" cy="657.953" rx="277.621" ry="657.953" transform="translate(249.433 249.433)"/><ellipse class="aj" cx="289.272" cy="669.604" rx="289.272" ry="669.604" transform="translate(237.782 237.782)"/><ellipse class="ak" cx="300.923" cy="681.255" rx="300.923" ry="681.255" transform="translate(226.131 226.131)"/><ellipse class="al" cx="312.574" cy="692.906" rx="312.574" ry="692.906" transform="translate(214.48 214.48)"/><ellipse class="am" cx="324.225" cy="704.557" rx="324.225" ry="704.557" transform="translate(202.829 202.829)"/><ellipse class="an" cx="335.875" cy="716.207" rx="335.875" ry="716.207" transform="translate(191.178 191.178)"/><ellipse class="ao" cx="347.526" cy="727.858" rx="347.526" ry="727.858" transform="translate(179.527 179.527)"/><ellipse class="ap" cx="359.177" cy="739.509" rx="359.177" ry="739.509" transform="translate(167.877 167.877)"/><ellipse class="aq" cx="370.828" cy="751.16" rx="370.828" ry="751.16" transform="translate(156.226 156.226)"/><ellipse class="ar" cx="382.479" cy="762.811" rx="382.479" ry="762.811" transform="translate(144.575 144.575)"/><ellipse class="as" cx="394.13" cy="774.462" rx="394.13" ry="774.462" transform="translate(132.924 132.924)"/><ellipse class="at" cx="405.781" cy="786.113" rx="405.781" ry="786.113" transform="translate(121.273 121.273)"/><ellipse class="au" cx="417.432" cy="797.764" rx="417.432" ry="797.764" transform="translate(109.622 109.622)"/><path class="av" d="M429.083,0C666.059,0,858.166,362.388,858.166,809.415S666.059,1618.83,429.083,1618.83,0,1256.443,0,809.415,192.107,0,429.083,0Z" transform="translate(97.971 97.971)"/><ellipse class="ar" cx="443.199" cy="823.531" rx="443.199" ry="823.531" transform="translate(83.855 83.855)"/><ellipse class="as" cx="456.44" cy="836.772" rx="456.44" ry="836.772" transform="translate(70.614 70.614)"/><ellipse class="at" cx="469.68" cy="850.012" rx="469.68" ry="850.012" transform="translate(57.374 57.374)"/><ellipse class="au" cx="482.92" cy="863.252" rx="482.92" ry="863.252" transform="translate(44.134 44.134)"/><path class="av" d="M496.16,0c274.022,0,496.16,392.419,496.16,876.493s-222.139,876.493-496.16,876.493S0,1360.566,0,876.493,222.139,0,496.16,0Z" transform="translate(30.893 30.893)"/><ellipse class="au" cx="513.082" cy="893.414" rx="513.082" ry="893.414" transform="translate(13.972 13.972)"/><path class="av" d="M527.054,0c291.084,0,527.054,406.251,527.054,907.386s-235.97,907.386-527.054,907.386S0,1408.521,0,907.386,235.97,0,527.054,0Z" transform="translate(0 0)"/></g></g></g></g></g></svg>