<svg xmlns="http://www.w3.org/2000/svg" width="39" height="36.387" viewBox="0 0 39 36.387"><defs><style>.a,.b,.c{fill:none;stroke:#b5c2ce;stroke-linecap:round;stroke-miterlimit:10;}.a,.b{stroke-width:2px;}.b{stroke-linejoin:round;}.c{stroke-width:1.8px;}</style></defs><g transform="translate(-872 -370.501)"><line class="a" x2="37" transform="translate(873 388.401)"/><path class="b" d="M162.485,316.276V326.9a6.279,6.279,0,0,1-5.978,6.542H138.978A6.279,6.279,0,0,1,133,326.9V316.276" transform="translate(743.457 72.447)"/><g transform="translate(881.601 371.401)"><path class="c" d="M1272.095,122.453c0,1.451-2.573,1.2-2.573,3.052" transform="translate(-1269.522 -113.296)"/><path class="c" d="M1272.095,93.38c0,1.451-2.573,1.2-2.573,3.052" transform="translate(-1269.522 -90.328)"/><path class="c" d="M1272.095,110.968c0-1.451-2.573-1.2-2.573-3.053" transform="translate(-1269.522 -101.811)"/><path class="c" d="M1269.522,78.844" transform="translate(-1269.522 -78.844)"/><path class="c" d="M1272.095,81.9c0-1.451-2.573-1.2-2.573-3.052" transform="translate(-1269.522 -78.844)"/></g><g transform="translate(890.203 371.401)"><path class="c" d="M1272.095,122.453c0,1.451-2.573,1.2-2.573,3.052" transform="translate(-1269.522 -113.296)"/><path class="c" d="M1272.095,93.38c0,1.451-2.573,1.2-2.573,3.052" transform="translate(-1269.522 -90.328)"/><path class="c" d="M1272.095,110.968c0-1.451-2.573-1.2-2.573-3.053" transform="translate(-1269.522 -101.811)"/><path class="c" d="M1269.522,78.844" transform="translate(-1269.522 -78.844)"/><path class="c" d="M1272.095,81.9c0-1.451-2.573-1.2-2.573-3.052" transform="translate(-1269.522 -78.844)"/></g><g transform="translate(898.804 371.401)"><path class="c" d="M1272.095,122.453c0,1.451-2.573,1.2-2.573,3.052" transform="translate(-1269.522 -113.296)"/><path class="c" d="M1272.095,93.38c0,1.451-2.573,1.2-2.573,3.052" transform="translate(-1269.522 -90.328)"/><path class="c" d="M1272.095,110.968c0-1.451-2.573-1.2-2.573-3.053" transform="translate(-1269.522 -101.811)"/><path class="c" d="M1269.522,78.844" transform="translate(-1269.522 -78.844)"/><path class="c" d="M1272.095,81.9c0-1.451-2.573-1.2-2.573-3.052" transform="translate(-1269.522 -78.844)"/></g></g></svg>