<svg xmlns="http://www.w3.org/2000/svg" width="30.051" height="36.316" viewBox="0 0 30.051 36.316"><defs><style>.a{fill:none;}.a,.b{stroke:#b5c2ce;stroke-linecap:round;stroke-linejoin:round;stroke-width:2px;}.b{fill:rgba(0,0,0,0);}</style></defs><g transform="translate(-1044.5 -420.862)"><line class="a" x2="14.919" transform="translate(1052.214 421.862)"/><rect class="b" width="3.041" height="2.528" transform="translate(1058.182 436.685)"/><line class="a" y2="9.609" transform="translate(1059.674 426.499)"/><path class="b" d="M-883.242,115.359a.636.636,0,0,0,.64-.656,13.869,13.869,0,0,0-12.509-13,14.519,14.519,0,0,0-1.515-.078q-.706,0-1.395.066a13.872,13.872,0,0,0-12.63,13.008.637.637,0,0,0,.64.656Z" transform="translate(1956.152 337.581)"/><path class="b" d="M-893.314,74.2v3.812h-8.936V74.2" transform="translate(1957.448 347.665)"/><path class="b" d="M5.58,2.8a.129.129,0,0,0,.13-.134A2.824,2.824,0,0,0,3.164.016,2.958,2.958,0,0,0,2.856,0q-.144,0-.284.014A2.824,2.824,0,0,0,0,2.662.13.13,0,0,0,.13,2.8Z" transform="translate(1062.401 456.178) rotate(180)"/></g></svg>