<svg xmlns="http://www.w3.org/2000/svg" width="22.269" height="22.269" viewBox="0 0 22.269 22.269"><defs><style>.a,.b,.c{fill:none;}.b,.c{stroke:#8395a5;stroke-width:1.5px;}.c{stroke-linecap:round;}.d,.e{stroke:none;}.e{fill:#8395a5;}</style></defs><g transform="translate(15.891) rotate(45)"><g class="a" transform="translate(0 0)"><path class="d" d="M3.644,22.077.272,18.3a1.065,1.065,0,0,1-.263-.7H0V4A4,4,0,0,1,4,0H5.02a4,4,0,0,1,4,4V17.593h0a1.065,1.065,0,0,1-.263.7l-3.38,3.78a1.146,1.146,0,0,1-1.733,0Z"/><path class="e" d="M 4.510621547698975 20.79507446289062 L 7.518838882446289 17.43036460876465 L 7.512923717498779 16.09320640563965 L 7.520703792572021 16.09320640563965 L 7.520703792572021 3.999605655670166 C 7.520703792572021 2.621315717697144 6.398983478546143 1.499995708465576 5.020203590393066 1.499995708465576 L 3.999603748321533 1.499995708465576 C 2.621323585510254 1.499995708465576 1.500003695487976 2.621315717697144 1.500003695487976 3.999605655670166 L 1.500003695487976 16.09320640563965 L 1.516893625259399 16.09320640563965 L 1.509425640106201 17.43105125427246 L 4.510621547698975 20.79507446289062 M 4.510353565216064 22.47255516052246 C 4.189953804016113 22.47255516052246 3.869553565979004 22.34070587158203 3.644103765487671 22.07699584960938 L 0.2718036472797394 18.29700660705566 C 0.08861364424228668 18.08257484436035 0.007143646478652954 17.83497619628906 0.00849364697933197 17.59320640563965 L 3.646697905423935e-06 17.59320640563965 L 3.646697905423935e-06 3.999605655670166 C 3.646697905423935e-06 1.791005730628967 1.790103673934937 -4.327087481215131e-06 3.999603748321533 -4.327087481215131e-06 L 5.020203590393066 -4.327087481215131e-06 C 7.229703426361084 -4.327087481215131e-06 9.020703315734863 1.791005730628967 9.020703315734863 3.999605655670166 L 9.020703315734863 17.59320640563965 L 9.019573211669922 17.59320640563965 C 9.02082347869873 17.83497619628906 8.93928337097168 18.08257484436035 8.756103515625 18.29700660705566 L 5.376603603363037 22.07699584960938 C 5.151153564453125 22.34070587158203 4.830753803253174 22.47255516052246 4.510353565216064 22.47255516052246 Z"/></g><line class="b" x2="7.732" transform="translate(0.644 7.088)"/><line class="c" y2="4.159" transform="translate(4.51 18.687)"/></g></svg>