<svg xmlns="http://www.w3.org/2000/svg" width="33.529" height="34.97" viewBox="0 0 33.529 34.97"><defs><style>.a{fill:none;stroke:#b5c2ce;stroke-linecap:round;stroke-linejoin:round;stroke-miterlimit:10;stroke-width:2px;}</style></defs><g transform="translate(1 1)"><path class="a" d="M61.742,29.222l5.573-3.28s-4.618-10.159-5.1-10.8-6.051-3.025-6.051-3.025a21.11,21.11,0,0,1-4.565.541,21.268,21.268,0,0,1-4.575-.541s-5.637,2.293-6.083,2.93-5.159,10.924-5.159,10.924l5.669,3.664" transform="translate(-35.787 -12.12)"/><path class="a" d="M113.823,174.4v21.314h19.783V174.574" transform="translate(-108.062 -162.744)"/><path class="a" d="M190.086,17s.955,3.822,4.682,3.822S199.545,17,199.545,17" transform="translate(-179.003 -16.647)"/></g></svg>