<svg xmlns="http://www.w3.org/2000/svg" width="26.914" height="37.845" viewBox="0 0 26.914 37.845"><defs><style>.a{fill:none;stroke:#b5c2ce;stroke-linecap:round;stroke-linejoin:round;stroke-miterlimit:10;stroke-width:2px;}</style></defs><g transform="translate(-703 -192.797)"><rect class="a" width="21.833" height="21.801" rx="5" transform="translate(704 200.649)"/><path class="a" d="M815.057,160.793h2.133a.625.625,0,0,1,.675.558v4.554a.625.625,0,0,1-.675.558h-2.133" transform="translate(-88.951 45.583)"/><path class="a" d="M609.662,12.3s.851-5.026,1.507-5.826a2.423,2.423,0,0,1,2.126-.876h8.123a2.408,2.408,0,0,1,2.321,1.219c.332.914,1.057,5.661,1.057,5.661" transform="translate(97.893 188.197)"/><path class="a" d="M609.662,5.778s.851,5.026,1.507,5.826a2.423,2.423,0,0,0,2.126.876h8.123a2.408,2.408,0,0,0,2.321-1.219c.332-.914,1.057-5.661,1.057-5.661" transform="translate(97.893 217.161)"/></g></svg>