<svg xmlns="http://www.w3.org/2000/svg" xmlns:xlink="http://www.w3.org/1999/xlink" width="60" height="60" viewBox="0 0 60 60"><defs><style>.a,.b,.c,.d,.f,.g,.i{fill:none;}.a,.b,.c,.d{stroke:#e5358a;}.a{stroke-width:0.2px;opacity:0.15;}.b{stroke-width:0.3px;opacity:0.2;}.c{stroke-width:0.5px;opacity:0.25;}.d{stroke-width:0.7px;opacity:0.3;}.e{stroke:rgba(0,0,0,0);stroke-miterlimit:10;fill:url(#a);}.f{stroke:#c626a1;}.f,.g{stroke-linecap:round;stroke-width:2px;}.g{stroke:#e1338d;}.h{stroke:none;}</style><linearGradient id="a" x1="-0.594" y1="1.983" x2="0.83" y2="0.324" gradientUnits="objectBoundingBox"><stop offset="0" stop-color="#7e03d5"/><stop offset="1" stop-color="#e73689"/></linearGradient></defs><g transform="translate(-653 4)"><g class="a" transform="translate(653 -4)"><circle class="h" cx="30" cy="30" r="30"/><circle class="i" cx="30" cy="30" r="29.9"/></g><g class="b" transform="translate(657)"><circle class="h" cx="26" cy="26" r="26"/><circle class="i" cx="26" cy="26" r="25.85"/></g><g class="c" transform="translate(660 3)"><circle class="h" cx="23" cy="23" r="23"/><circle class="i" cx="23" cy="23" r="22.75"/></g><g class="d" transform="translate(664 7)"><circle class="h" cx="19" cy="19" r="19"/><circle class="i" cx="19" cy="19" r="18.65"/></g><g transform="translate(645 -13.463)"><path class="e" d="M-3483.758,939.007c-.083,0-8.292-.006-10.363-.567a3.318,3.318,0,0,1-2.333-2.335,35.01,35.01,0,0,1-.545-6.37,35.145,35.145,0,0,1,.545-6.37,3.393,3.393,0,0,1,2.333-2.356c2.049-.539,10.28-.545,10.363-.545s8.314.006,10.363.567a3.318,3.318,0,0,1,2.334,2.335,33.187,33.187,0,0,1,.545,6.392,35.141,35.141,0,0,1-.545,6.37,3.316,3.316,0,0,1-2.334,2.335C-3475.444,939-3483.675,939.007-3483.758,939.007Zm-2-13.156a1,1,0,0,0-1,1v5.58a1,1,0,0,0,1,1,.986.986,0,0,0,.489-.13l4.96-2.79a.989.989,0,0,0,.51-.872.988.988,0,0,0-.51-.871l-4.96-2.79A.988.988,0,0,0-3485.757,925.851Z" transform="translate(3522 -888.679)"/><line class="f" x2="9.348" transform="translate(33.958 52.427)"/><line class="g" x1="3.116" y1="4.674" transform="translate(34.737 27.5)"/><line class="g" y1="4.674" x2="3.116" transform="translate(37.074 29.837)"/></g></g></svg>