<svg xmlns="http://www.w3.org/2000/svg" xmlns:xlink="http://www.w3.org/1999/xlink" width="28.584" height="28.584" viewBox="0 0 28.584 28.584"><defs><style>.a{fill:#e6e7e2;}.b{fill:#eff1f5;}.c{clip-path:url(#a);}.d{fill:#deae85;}.e{fill:#e63689;}.f{fill:#ecc19c;}.g{fill:#494846;}</style><clipPath id="a"><ellipse class="a" cx="14.292" cy="14.292" rx="14.292" ry="14.292"/></clipPath></defs><g transform="translate(-41 -684.035)"><ellipse class="b" cx="14.292" cy="14.292" rx="14.292" ry="14.292" transform="translate(41 684.035)"/><g class="c" transform="translate(41 684.035)"><g transform="translate(7.504 5.984)"><path class="d" d="M50.84,123.858h0a6.853,6.853,0,0,0-.833-.539.079.079,0,0,0-.025-.012,4.472,4.472,0,0,1-2.315-3.92l-2.09-.01a4.472,4.472,0,0,1-2.335,3.93.008.008,0,0,0,0,0,7.286,7.286,0,0,0-.843.539,7.055,7.055,0,0,0-2.852,5.674h14.14A7.052,7.052,0,0,0,50.84,123.858Z" transform="translate(-39.539 -105.389)"/><path class="e" d="M53.678,152.994H39.538a7.055,7.055,0,0,1,2.852-5.674,7.3,7.3,0,0,1,.843-.539.008.008,0,0,1,.005,0,4.389,4.389,0,0,0,.645-.433,3.813,3.813,0,0,0,5.456,0,4.13,4.13,0,0,0,.638.43.077.077,0,0,1,.025.012,6.852,6.852,0,0,1,.833.539h0A7.053,7.053,0,0,1,53.678,152.994Z" transform="translate(-39.538 -128.862)"/><path class="f" d="M52.217,38.091v5.553c0,3.756,3.3,6.8,5.426,6.8s5.426-3.045,5.426-6.8V38.091Z" transform="translate(-50.573 -34.641)"/><path class="g" d="M52.285,13.909A6.373,6.373,0,0,0,47.3,11.481a6.555,6.555,0,0,0-6.457,6.651,6.717,6.717,0,0,0,2.11,4.917,7.491,7.491,0,0,1-.521-2.772,7.179,7.179,0,0,1,1.291-4.18,7.407,7.407,0,0,0,3.761.308A7.4,7.4,0,0,0,51,15.108a6.888,6.888,0,0,1,2.179,5.17,7.39,7.39,0,0,1-.623,3.008c1.274-.528,2.211-2.408,2.211-4.646C54.765,16.244,53.69,14.269,52.285,13.909Z" transform="translate(-40.672 -11.481)"/></g></g></g></svg>