<svg xmlns="http://www.w3.org/2000/svg" width="14" height="12" viewBox="0 0 14 12"><defs><style>.a{fill:#e63689;}</style></defs><path class="a" d="M9.047,1.046a.8.8,0,0,1,1.263.734l-.2,1.9a.8.8,0,0,0,.473.817l1.755.772a.8.8,0,0,1,0,1.465L10.58,7.5a.8.8,0,0,0-.473.817l.2,1.9a.8.8,0,0,1-1.263.734L7.467,9.817a.8.8,0,0,0-.935,0L4.953,10.954A.8.8,0,0,1,3.69,10.22l.2-1.9A.8.8,0,0,0,3.42,7.5L1.664,6.732a.8.8,0,0,1,0-1.465L3.42,4.5a.8.8,0,0,0,.473-.817l-.2-1.9a.8.8,0,0,1,1.263-.734L6.533,2.183a.8.8,0,0,0,.935,0Z"/></svg>