<svg xmlns="http://www.w3.org/2000/svg" width="18.698" height="16.635" viewBox="0 0 18.698 16.635"><defs><style>.a{fill:#dce2ef;}</style></defs><path class="a" d="M17.214,1.628A5.028,5.028,0,0,0,13.474,0a4.7,4.7,0,0,0-2.938,1.014,6.011,6.011,0,0,0-1.188,1.24,6.007,6.007,0,0,0-1.188-1.24A4.7,4.7,0,0,0,5.223,0a5.028,5.028,0,0,0-3.74,1.628A5.844,5.844,0,0,0,0,5.619a6.959,6.959,0,0,0,1.854,4.555A39.542,39.542,0,0,0,6.5,14.532c.643.548,1.372,1.17,2.129,1.831a1.1,1.1,0,0,0,1.445,0c.757-.662,1.487-1.284,2.13-1.832a39.524,39.524,0,0,0,4.642-4.357A6.959,6.959,0,0,0,18.7,5.619,5.844,5.844,0,0,0,17.214,1.628Zm0,0"/></svg>